<svg version="1.2" baseProfile="tiny-ps" xmlns="http://www.w3.org/2000/svg" viewBox="0 0 486 432" width="486" height="432">
	<title>Logo-ai</title>
	<style>
		tspan { white-space:pre }
		.shp0 { fill: #b3b3b3;stroke: #b3b3b3;stroke-width: 5 } 
		.shp1 { fill: #ffffff;stroke: #b33616;stroke-width: 5 } 
		.shp2 { fill: #ffffff;stroke: #000000;stroke-width: 5 } 
		.shp3 { fill: #0f121d } 
		.shp4 { fill: #213d7a } 
		.shp5 { fill: #b33616 } 
		.shp6 { fill: #d2daed } 
		.shp7 { fill: #b3b3b3 } 
		.shp8 { fill: #b3b3b3;stroke: #ffffff } 
		.shp9 { fill: #b33616;stroke: #ffffff } 
		.shp10 { fill: #213d7a;stroke: #ffffff } 
		.shp11 { fill: #0f121d;stroke: #ffffff } 
		.shp12 { fill: none;stroke: #008b8b;stroke-width: 26 } 
		.shp13 { fill: none;stroke: #ffffff;stroke-width: 7 } 
	</style>
	<g id="Layer 17">
		<path id="&lt;Path&gt;" class="shp0" d="M278.36 228.93L354.49 164.26L356.71 166.87L280.58 231.54L278.36 228.93Z" />
		<path id="&lt;Path&gt;" class="shp1" d="M280.19 227.93L202.62 95.43L205.58 93.7L283.15 226.2L280.19 227.93Z" />
		<path id="&lt;Path&gt;" class="shp2" d="M134.7 170.92L205.37 98.13L207.83 100.52L137.16 173.31L134.7 170.92Z" />
		<path id="&lt;Path&gt;" class="shp3" d="" />
		<path id="&lt;Path&gt;" class="shp3" d="" />
		<path id="&lt;Path&gt;" class="shp3" d="M127.27 414.98L144.87 414.98L158.92 414.98C161.93 414.98 164.4 413.06 164.4 410.71L164.4 241.29C164.4 238.94 161.93 237.02 158.92 237.02L113.22 237.02C110.2 237.02 107.74 238.94 107.74 241.29L107.74 396.68L107.74 401.4" />
		<path id="&lt;Path&gt;" class="shp4" d="M225.52 414.98L192.85 414.98C186.25 414.98 180.85 409.58 180.85 402.98L180.85 212C180.85 205.4 186.25 200 192.85 200L225.52 200C232.12 200 237.52 205.4 237.52 212L237.52 402.98C237.52 409.58 232.12 414.98 225.52 414.98Z" />
		<path id="&lt;Path&gt;" class="shp5" d="M298.64 413.92L265.97 413.92C259.37 413.92 253.97 408.52 253.97 401.92L253.97 295.64C253.97 289.04 259.37 283.64 265.97 283.64L298.64 283.64C305.24 283.64 310.64 289.04 310.64 295.64L310.64 401.92C310.64 408.52 305.24 413.92 298.64 413.92Z" />
		<path id="&lt;Path&gt;" class="shp6" d="" />
		<path id="&lt;Path&gt;" class="shp6" d="" />
		<path id="&lt;Path&gt;" class="shp7" d="M383.75 386.1L383.75 237.02C383.75 234.67 381.29 232.75 378.27 232.75L332.57 232.75C329.56 232.75 327.09 234.67 327.09 237.02L327.09 412.14C327.09 414.48 329.56 416.41 332.57 416.41L333.11 416.41L348.8 416.41" />
		<path id="&lt;Path&gt;" class="shp6" d="" />
		<path id="&lt;Path&gt;" class="shp8" d="M363.65 165.88C363.65 170.42 359.96 174.11 355.42 174.11C350.88 174.11 347.2 170.42 347.2 165.88C347.2 161.34 350.88 157.65 355.42 157.65C359.96 157.65 363.65 161.34 363.65 165.88Z" />
		<path id="&lt;Path&gt;" class="shp9" d="M290.53 226.89C290.53 231.43 286.85 235.11 282.3 235.11C277.76 235.11 274.08 231.43 274.08 226.89C274.08 222.34 277.76 218.66 282.3 218.66C286.85 218.66 290.53 222.34 290.53 226.89Z" />
		<path id="&lt;Path&gt;" class="shp10" d="M215.13 98.47C215.13 103.02 211.44 106.7 206.9 106.7C202.36 106.7 198.68 103.02 198.68 98.47C198.68 93.93 202.36 90.25 206.9 90.25C211.44 90.25 215.13 93.93 215.13 98.47Z" />
		<path id="&lt;Path&gt;" class="shp11" d="M144.29 171.59C144.29 176.13 140.61 179.82 136.07 179.82C131.53 179.82 127.84 176.13 127.84 171.59C127.84 167.05 131.53 163.37 136.07 163.37C140.61 163.37 144.29 167.05 144.29 171.59Z" />
	</g>
	<g id="Layer 18">
		<g id="&lt;Group&gt;">
			<path id="&lt;Path&gt;" class="shp12" d="M137.77 13.53L365.75 23.77L470.86 226.33L348 418.64L120.02 408.39L14.91 205.84L137.77 13.53Z" />
			<path id="&lt;Path&gt;" class="shp13" d="M137.77 13.53L365.75 23.77L470.86 226.33L348 418.64L120.02 408.39L14.91 205.84L137.77 13.53Z" />
			<path id="&lt;Path&gt;" class="shp12" d="M120.52 23.46L348.52 13.8L470.89 206.42L365.25 408.71L137.25 418.37L14.88 225.74L120.52 23.46Z" />
			<path id="&lt;Path&gt;" class="shp13" d="M120.52 23.46L348.52 13.8L470.89 206.42L365.25 408.71L137.25 418.37L14.88 225.74L120.52 23.46Z" />
		</g>
	</g>
</svg>